# asteroid.obj - generated by hand
# Vertices: 12, Faces: 20
v -0.3330 0.5389 0.0000
v 0.2555 0.4134 0.0000
v -0.2871 -0.4645 0.0000
v 0.2805 -0.4539 0.0000
v 0.0000 -0.3453 0.5587
v 0.0000 0.3377 0.5465
v 0.0000 -0.3649 -0.5905
v 0.0000 0.2633 -0.4261
v 0.4945 0.0000 -0.3056
v 0.4144 0.0000 0.2561
v -0.4529 0.0000 -0.2799
v -0.5115 0.0000 0.3161
f 1 12 6
f 1 6 2
f 1 2 8
f 1 8 11
f 1 11 12
f 2 6 10
f 6 12 5
f 12 11 3
f 11 8 7
f 8 2 9
f 4 10 5
f 4 5 3
f 4 3 7
f 4 7 9
f 4 9 10
f 5 10 6
f 3 5 12
f 7 3 11
f 9 7 8
f 10 9 2
