# enemy_rock.obj
# Vertices: 42, Faces: 80
v -0.4641 0.7509 0.0000
v 0.4448 0.7197 0.0000
v -0.4428 -0.7164 0.0000
v 0.4494 -0.7271 0.0000
v 0.0000 -0.4978 0.8054
v 0.0000 0.4496 0.7275
v 0.0000 -0.4621 -0.7477
v 0.0000 0.4906 -0.7938
v 0.7715 0.0000 -0.4768
v 0.8327 0.0000 0.5146
v -0.7639 0.0000 -0.4721
v -0.7536 0.0000 0.4657
v -1.3327 0.7723 0.5322
v -0.7927 0.4910 1.3472
v -0.4722 1.3426 0.8543
v 0.4871 1.4026 0.8127
v 0.0000 1.6100 0.0000
v 0.4816 1.2059 -0.7707
v -0.5392 1.3162 -0.8041
v -0.8608 0.5084 -1.4089
v -1.2792 0.7722 -0.5337
v -1.5302 0.0000 0.0000
v 0.8715 0.5355 1.3426
v 1.2121 0.7473 0.4979
v -0.8504 -0.4665 1.2934
v 0.0000 0.0000 1.4901
v -1.2733 -0.8120 -0.4761
v -1.3692 -0.7515 0.4769
v 0.0000 0.0000 -1.6863
v -0.7901 -0.5156 -1.3974
v 1.2317 0.8561 -0.5080
v 0.8410 0.5086 -1.2898
v 1.2245 -0.7629 0.4739
v 0.7673 -0.4716 1.2478
v 0.5049 -1.3657 0.8476
v -0.5277 -1.2288 0.8507
v 0.0000 -1.5073 0.0000
v -0.5069 -1.2143 -0.7723
v 0.4919 -1.3765 -0.7960
v 0.7979 -0.4897 -1.2237
v 1.3885 -0.8638 -0.5177
v 1.5918 0.0000 0.0000
f 1 13 15
f 12 14 13
f 6 15 14
f 13 14 15
f 1 15 17
f 6 16 15
f 2 17 16
f 15 16 17
f 1 17 19
f 2 18 17
f 8 19 18
f 17 18 19
f 1 19 21
f 8 20 19
f 11 21 20
f 19 20 21
f 1 21 13
f 11 22 21
f 12 13 22
f 21 22 13
f 2 16 24
f 6 23 16
f 10 24 23
f 16 23 24
f 6 14 26
f 12 25 14
f 5 26 25
f 14 25 26
f 12 22 28
f 11 27 22
f 3 28 27
f 22 27 28
f 11 20 30
f 8 29 20
f 7 30 29
f 20 29 30
f 8 18 32
f 2 31 18
f 9 32 31
f 18 31 32
f 4 33 35
f 10 34 33
f 5 35 34
f 33 34 35
f 4 35 37
f 5 36 35
f 3 37 36
f 35 36 37
f 4 37 39
f 3 38 37
f 7 39 38
f 37 38 39
f 4 39 41
f 7 40 39
f 9 41 40
f 39 40 41
f 4 41 33
f 9 42 41
f 10 33 42
f 41 42 33
f 5 34 26
f 10 23 34
f 6 26 23
f 34 23 26
f 3 36 28
f 5 25 36
f 12 28 25
f 36 25 28
f 7 38 30
f 3 27 38
f 11 30 27
f 38 27 30
f 9 40 32
f 7 29 40
f 8 32 29
f 40 29 32
f 10 42 24
f 9 31 42
f 2 24 31
f 42 31 24
