# enemy_ship.obj - refined hand-crafted model
# Vertices: 11, Faces: 25
v 0.0000 0.2000 2.5000
v 0.0000 -0.2000 2.5000
v 0.0000 0.5000 0.5000
v 0.8000 0.0000 0.5000
v 0.0000 -0.5000 0.5000
v -0.8000 0.0000 0.5000
v 0.0000 0.3000 -1.0000
v 1.8000 0.0000 -1.5000
v 0.0000 -0.3000 -1.0000
v -1.8000 0.0000 -1.5000
v 0.0000 0.0000 -2.0000
f 1 3 4
f 1 4 5
f 1 5 6
f 1 6 3
f 2 4 3
f 2 5 4
f 2 6 5
f 2 3 6
f 3 7 4
f 4 8 5
f 5 9 6
f 6 10 3
f 3 4 7
f 4 5 8
f 5 6 9
f 6 3 10
f 7 8 9
f 4 8 7
f 5 9 8
f 7 10 9
f 3 10 7
f 6 9 10
f 8 11 10
f 10 11 9
f 9 11 8
