# player_ship.obj - refined hand-crafted model
# Vertices: 19, Faces: 35
v 0.0000 0.0000 3.5000
v 0.0000 0.3500 1.5000
v 0.3500 0.0000 1.5000
v 0.0000 -0.3500 1.5000
v -0.3500 0.0000 1.5000
v 0.0000 0.5000 0.0000
v 0.6000 0.0000 0.0000
v 0.0000 -0.5000 0.0000
v -0.6000 0.0000 0.0000
v 0.0000 0.3000 -1.2000
v 0.8000 0.0000 -1.2000
v 0.0000 -0.3000 -1.2000
v -0.8000 0.0000 -1.2000
v 2.2000 0.0000 -2.0000
v -2.2000 0.0000 -2.0000
v 0.0000 1.0000 -2.0000
v 0.0000 -0.6000 -2.0000
v 0.3500 0.0000 -2.5000
v -0.3500 0.0000 -2.5000
f 1 2 3
f 1 3 4
f 1 4 5
f 1 5 2
f 2 6 3
f 3 7 4
f 4 8 5
f 5 9 2
f 2 3 6
f 3 4 7
f 4 5 8
f 5 2 9
f 6 10 7
f 7 11 8
f 8 12 9
f 9 13 6
f 6 7 10
f 7 8 11
f 8 9 12
f 9 6 13
f 11 14 10
f 11 12 14
f 10 14 12
f 13 15 10
f 13 12 15
f 10 15 12
f 10 16 13
f 11 16 14
f 12 17 11
f 12 13 17
f 11 18 12
f 13 19 12
f 11 13 18
f 13 18 19
f 18 19 12
