# star.obj - generated by hand
# Vertices: 20, Faces: 36
v 0.0000 1.0000 0.1250
v -0.2645 0.3641 0.1250
v -0.9511 0.3090 0.1250
v -0.4280 -0.1391 0.1250
v -0.5878 -0.8090 0.1250
v -0.0000 -0.4500 0.1250
v 0.5878 -0.8090 0.1250
v 0.4280 -0.1391 0.1250
v 0.9511 0.3090 0.1250
v 0.2645 0.3641 0.1250
v 0.0000 1.0000 -0.1250
v -0.2645 0.3641 -0.1250
v -0.9511 0.3090 -0.1250
v -0.4280 -0.1391 -0.1250
v -0.5878 -0.8090 -0.1250
v -0.0000 -0.4500 -0.1250
v 0.5878 -0.8090 -0.1250
v 0.4280 -0.1391 -0.1250
v 0.9511 0.3090 -0.1250
v 0.2645 0.3641 -0.1250
f 1 2 3
f 1 3 4
f 1 4 5
f 1 5 6
f 1 6 7
f 1 7 8
f 1 8 9
f 1 9 10
f 11 13 12
f 11 14 13
f 11 15 14
f 11 16 15
f 11 17 16
f 11 18 17
f 11 19 18
f 11 20 19
f 1 2 12
f 1 12 11
f 2 3 13
f 2 13 12
f 3 4 14
f 3 14 13
f 4 5 15
f 4 15 14
f 5 6 16
f 5 16 15
f 6 7 17
f 6 17 16
f 7 8 18
f 7 18 17
f 8 9 19
f 8 19 18
f 9 10 20
f 9 20 19
f 10 1 11
f 10 11 20
